<svg xmlns="http://www.w3.org/2000/svg" width="43.307" height="36" viewBox="0 0 43.307 36">
  <path id="Icon_awesome-store" data-name="Icon awesome-store" d="M42.328,8.339,37.765,1.055A2.251,2.251,0,0,0,35.859,0H7.453A2.251,2.251,0,0,0,5.548,1.055L.984,8.339C-1.371,12.1.717,17.332,5.119,17.93a7.307,7.307,0,0,0,.963.063,6.943,6.943,0,0,0,5.189-2.327,6.948,6.948,0,0,0,10.378,0,6.948,6.948,0,0,0,10.378,0,6.966,6.966,0,0,0,5.189,2.327,7.228,7.228,0,0,0,.963-.063C42.6,17.339,44.691,12.108,42.328,8.339ZM37.23,20.25a8.921,8.921,0,0,1-2.074-.267V27h-27V19.983a9.315,9.315,0,0,1-2.074.267,9.487,9.487,0,0,1-1.266-.084,8.842,8.842,0,0,1-1.153-.253V33.75A2.248,2.248,0,0,0,5.913,36h31.5a2.248,2.248,0,0,0,2.25-2.25V19.913a7.179,7.179,0,0,1-1.153.253A9.778,9.778,0,0,1,37.23,20.25Z" transform="translate(-0.004)" fill="#43ffe5"/>
</svg>
